<?xml version="1.0" encoding="iso-8859-1"?>
<!-- Generator: Adobe Illustrator 19.0.0, SVG Export Plug-In . SVG Version: 6.00 Build 0)  -->
<svg version="1.1" id="training" xmlns="http://www.w3.org/2000/svg" xmlns:xlink="http://www.w3.org/1999/xlink" x="0px" y="0px"
	 viewBox="0 0 512 512" style="enable-background:new 0 0 512 512;" xml:space="preserve">
<g>
	<g>
		<circle cx="182.267" cy="105.211" r="41.698"/>
	</g>
</g>
<g>
	<g>
		<path d="M285.673,243.107c-1.389-10.34-10.888-17.605-21.239-16.21l-64.768,8.698l-40.394-46.051l42.479,28.577l3.473-12.909
			c4.052-15.02-4.838-30.481-19.858-34.533l-48.498-13.085c-15.02-4.052-30.481,4.838-34.533,19.858
			c-1.468,5.44-22.055,81.745-32.18,119.27c-3.323,12.313-3.486,25.328-0.418,37.708c3.502,14.129,8.977,35.795,17.459,68.558
			l-64.406-0.337C10.263,402.537,0.066,412.68,0,425.201s10.031,22.724,22.551,22.789l93.858,0.491c0.04,0,0.079,0,0.119,0
			c14.828-0.001,25.658-14.023,21.945-28.357l-21.43-82.703l64.88,9.509l12.865,82.38c1.933,12.377,13.533,20.833,25.897,18.902
			c12.371-1.932,20.833-13.526,18.902-25.897l-15.443-98.891c-1.533-9.818-9.281-17.492-19.112-18.933l-25.584-3.75l1.837-6.809
			c-7.583-1.479-14.105-6.445-17.549-13.349l-32.869-66.125l47.073,53.667c4.177,4.762,10.456,7.108,16.718,6.266l74.807-10.047
			C279.805,262.956,287.062,253.447,285.673,243.107z"/>
	</g>
</g>
<g>
	<g>
		<path d="M265.173,324.88l-6.561-8.132c-0.545-0.676-1.02-1.393-1.462-2.129c-6.396,3.479-10.737,10.258-10.737,18.052
			c0,11.342,9.195,20.536,20.536,20.536c10.204,0,18.646-7.449,20.242-17.203C278.582,335.628,270.616,331.626,265.173,324.88z"/>
	</g>
</g>
<g>
	<g>
		<path d="M327.406,265.813c-7.3-2.579-14.691-0.51-16.016,3.244c-1.376,3.894-3.882,31.796,5.037,31.796
			c7.557,0,20.155-18.917,21.405-22.456C339.157,274.643,334.708,268.392,327.406,265.813z"/>
	</g>
</g>
<g>
	<g>
		<path d="M509.533,289.982c-1.776-0.648-4.014,0.046-4.895,2.455c-1.29,3.539-2.927,7.028-4.653,10.131
			c-3.064,5.569-6.44,10.148-10.313,14.359c-9.267,9.645-19.094,14.337-28.604,15.471c-1.681-1.724-7.673-9.136-20.127-10.979
			l-89.967-13.309c0,0-4.875-6.602-10.413-14.017c-7.222,9.724-17.627,20.613-29.006,16.594
			c-11.664-4.12-12.07-19.934-12.203-25.131c-0.109-4.241,0.139-9.583,0.714-13.962c-10.375,2.461-17.703,10.221-20.054,19.624
			l-11.01,6.74c-2.004,1.227-3.382,3.256-3.782,5.571c-0.4,2.315,0.216,4.689,1.69,6.517l6.561,8.132
			c3.752,4.65,9.328,7.193,15.05,7.193c2.441,0,4.909-0.464,7.271-1.423c7.067-2.871,15.173,0.82,17.607,8.113
			c2.876,8.614,6.884,20.1,11.123,30.644c-11.725,5.445-8.926,4.147-27.595,12.817c-3.407,1.583-5.776,4.793-6.282,8.516
			l-2.966,21.788c-0.822,6.036,3.406,11.595,9.441,12.418c6.06,0.821,11.598-3.426,12.417-9.442l2.153-15.813
			c12.146-5.641,9.513-4.418,21.787-10.119c0.122,4.796,1.044,40.979,1.398,54.859c0.153,6.018,5.126,10.886,11.308,10.746
			c6.089-0.156,10.901-5.217,10.745-11.307c-0.25-9.824-0.975-38.3-1.229-48.261c14.924-1.722,37.703-4.514,59.086-7.271
			c-2.489-6.262-3.886-13.259-3.886-20.642c0-3.271,2.653-5.925,5.925-5.925c3.271,0,5.925,2.653,5.925,5.925
			c0,8.529,2.806,19.448,6.991,25.635c5.036,7.445,9.399,14.212,16.407,18.355c0.596,6.362,2.473,26.385,3.14,33.494
			c0.568,6.049,5.927,10.519,12.012,9.952c6.065-0.569,10.521-5.947,9.952-12.012c-1.32-14.077-0.597-6.372-3.439-36.685
			c9.29-10.224,11.689-27.562,9.71-39.796c-0.669-4.135-1.798-8.031-3.518-11.491c11.302-5.343,19.707-14.009,26.025-23.595
			c3.607-5.696,6.501-11.636,8.79-18.452c1.289-3.791,2.401-7.969,3.127-12.271C512.245,292.384,511.261,290.613,509.533,289.982z"
			/>
	</g>
</g>
<g>
</g>
<g>
</g>
<g>
</g>
<g>
</g>
<g>
</g>
<g>
</g>
<g>
</g>
<g>
</g>
<g>
</g>
<g>
</g>
<g>
</g>
<g>
</g>
<g>
</g>
<g>
</g>
<g>
</g>
</svg>
