<svg id="walking" enable-background="new 0 0 512.765 512.765" viewBox="0 0 512.765 512.765" xmlns="http://www.w3.org/2000/svg"><g><path d="m5.404 26.849c67.797 56.434 126.823 90.596 175.428 111.067 40.023 1.465 80.228 2.932 84.989 3.091 8.094-.059 15.985-1.877 23.146-5.153-12.434-1.125-25.796-3.087-39.099-6.352-87.033-21.364-170.542-80.154-225.271-125.711-6.366-5.299-15.825-4.436-21.125 1.933-5.3 6.367-4.436 15.825 1.932 21.125z"/><g><path d="m32.689 131.927c-6.301 5.379-7.048 14.847-1.669 21.147l9.368 10.831c.437-.421.858-.855 1.304-1.269 6.999-6.5 14.803-11.912 23.172-16.16l-11.027-12.88c-5.379-6.301-14.846-7.047-21.148-1.669z"/><path d="m441.947 189.211 31.251 3.635c2.539.295 5.06.444 7.488.444 2.07 0 4.106-.109 6.055-.323 10.77-1.183 20.737-5.011 24.297-11.702 3.075-5.779 1.107-41.038 1.107-41.038.02-8.73-7.161-16.371-15.699-18.168-10.516-2.212-15.139-4.517-16.959-5.693l-.558-.36-.507-.428c-5.717-4.83-10.253-11.347-13.117-18.849-3.376-8.842-9.747-21.445-20.927-31.278-12.145-10.682-21.962-22.544-29.178-35.256l-15.17-26.722c-.937-1.65-2.612-2.635-4.482-2.635l-.255.006c-1.955.08-3.682 1.232-4.507 3.007-10.716 23.072-15.682 61.842-16.95 73.175l-.326 2.912-1.798 2.314c-5.628 7.248-17.485 23.25-33.64 48.98-1.006 1.602-2.067 3.162-3.176 4.683l106.11 53.216c.313.021.626.044.941.08z"/><path d="m497.253 482.446h-90.981c-.648-5.508-3.061-10.775-7.14-15.088-5.296-5.601-11.413-10.302-18.178-13.972l-5.439-2.952-.017-36.566c-.009-19.404 1.967-38.188 5.874-55.818l.039-.193c3.795-20.552 4.905-24.05 13.474-32.315 3.909-3.77 9.817-9.467 18.045-20.056.159-.206.306-.426.433-.652 5.336-9.518 8.153-20.446 8.865-34.393.63-12.302-.382-25.641-1.555-41.087l-.012-.169c-.421-5.548-.853-11.284-1.231-17.269l-107.699-54.387c-13.64 8.63-29.728 13.48-46.318 13.48-.939 0-153.987-5.616-153.987-5.616-18.455.001-35.969 6.829-49.319 19.225-13.2 12.258-20.884 28.691-21.638 46.272l-.035.703s-2.101 11.921-3.96 22.383c-15.843 89.264-34.24 193.821-35.893 210.164-.945 9.35.162 17.28 3.369 23.995-2.031 2.559-3.253 5.79-3.253 9.311 0 8.284 6.716 15 15 15h481.556c8.284 0 15-6.716 15-15 0-8.285-6.716-15-15-15zm-422.727-43.421c1.75-8.281 8.116-35.894 16.594-43.511l.148-.134.154-.128c30.006-24.941 49.474-51.492 57.864-78.916l4.584-14.984 12.032 10.038c14.099 11.763 28.815 19.426 46.312 24.116 21.55 5.775 45.059 6.245 71.341 6.245 2.947 0 5.95-.007 9.009-.015l10.09-.028 4.29 127.611c.21 4.773.681 9.143 1.443 13.128h-202.435c-.648-5.508-3.061-10.775-7.139-15.088-6.853-7.247-14.86-13.72-20.37-17.873l-5.285-3.984z"/></g></g></svg>